<?xml version="1.0" encoding="UTF-8" standalone="no"?>
<!-- Created with Inkscape (http://www.inkscape.org/) -->

<svg
   width="275.54456mm"
   height="88.314255mm"
   viewBox="0 0 275.54456 88.314255"
   version="1.1"
   id="svg1"
   xmlns="http://www.w3.org/2000/svg"
   xmlns:svg="http://www.w3.org/2000/svg">
  <defs
     id="defs1" />
  <g
     id="g33"
     transform="translate(-28.712201,-58.338191)">
    <ellipse
       style="display:none;fill:#ffffff;stroke-width:4.98115;stroke-linecap:round;stroke-linejoin:round"
       id="ellipse32"
       cx="174.13626"
       cy="-122.60219"
       transform="matrix(-0.07811049,0.99694471,-0.99991102,0.01333992,0,0)"
       rx="91.509308"
       ry="118.81278" />
    <path
       d="m 52.595615,76.816954 c 0.862356,-0.01066 1.722281,0.02892 2.580205,0.118856 -0.857924,-0.08994 -1.717849,-0.129519 -2.580205,-0.118856 z m 0,0 c -0.670721,0.0083 -1.343001,0.04713 -2.016414,0.116272 0.673413,-0.06914 1.345693,-0.107978 2.016414,-0.116272 z m -2.016414,0.116272 c -0.673413,0.06914 -1.348064,0.16869 -2.024166,0.29869 0.676102,-0.13 1.350753,-0.229551 2.024166,-0.29869 z m -2.024166,0.29869 c -0.676102,0.129999 -1.353646,0.290233 -2.032434,0.481108 0.678788,-0.190875 1.356332,-0.351109 2.032434,-0.481108 z m -2.032434,0.481108 c -0.678788,0.190874 -1.358715,0.412277 -2.040186,0.664042 0.681471,-0.251765 1.361398,-0.473168 2.040186,-0.664042 z m -2.040186,0.664042 c -0.778824,0.28773 -1.530815,0.60484 -2.255676,0.950846 0.724861,-0.346006 1.476852,-0.663116 2.255676,-0.950846 z m -2.255676,0.950846 c -0.724861,0.346006 -1.422514,0.720717 -2.093412,1.124996 0.670898,-0.404279 1.368551,-0.77899 2.093412,-1.124996 z m -2.093412,1.124996 c -0.670898,0.404279 -1.31473,0.837629 -1.931665,1.300179 0.616935,-0.46255 1.260767,-0.8959 1.931665,-1.300179 z m -1.931665,1.300179 c -0.616935,0.46255 -1.206946,0.954544 -1.769918,1.475362 0.562972,-0.520818 1.152983,-1.012812 1.769918,-1.475362 z m -1.769918,1.475362 c -0.562972,0.520819 -1.099162,1.070944 -1.608171,1.650029 0.509009,-0.579085 1.045199,-1.12921 1.608171,-1.650029 z m -1.608171,1.650029 c -0.509008,0.579084 -0.990861,1.186829 -1.445906,1.824178 0.455045,-0.637349 0.936898,-1.245094 1.445906,-1.824178 z m -1.445906,1.824178 c -0.455045,0.637348 -0.883078,1.304267 -1.284159,1.999878 0.401081,-0.695611 0.829114,-1.36253 1.284159,-1.999878 z m -1.284159,1.999878 c -0.401082,0.69561 -0.775294,1.420157 -1.122413,2.174027 0.347119,-0.75387 0.721331,-1.478417 1.122413,-2.174027 z m -1.122413,2.174027 c -0.345146,0.749587 -0.650707,1.500883 -0.91674,2.254126 0.266033,-0.753243 0.571594,-1.504539 0.91674,-2.254126 z m -0.91674,2.254126 c -0.266032,0.753243 -0.492624,1.508596 -0.679545,2.265495 0.186921,-0.756899 0.413513,-1.512252 0.679545,-2.265495 z m -0.679545,2.265495 c -0.18692,0.756899 -0.334024,1.515275 -0.441833,2.27583 0.107809,-0.760555 0.254913,-1.518931 0.441833,-2.27583 z m -0.441833,2.27583 c -0.107809,0.760555 -0.176457,1.522989 -0.205156,2.287199 0.0287,-0.76421 0.09735,-1.526644 0.205156,-2.287199 z m -0.205156,2.287199 c -0.0287,0.764209 -0.01785,1.530189 0.03256,2.298049 -0.05041,-0.76786 -0.06126,-1.53384 -0.03256,-2.298049 z m 0.03256,2.298049 c 0.05041,0.76787 0.140749,1.5379 0.270267,2.30942 -0.129518,-0.77152 -0.219857,-1.54155 -0.270267,-2.30942 z m 0.270267,2.30942 c 0.129518,0.77152 0.298321,1.54459 0.506946,2.31976 -0.208625,-0.77517 -0.377428,-1.54824 -0.506946,-2.31976 z m 0.506946,2.31976 c 0.208625,0.77517 0.456927,1.5523 0.744658,2.33112 -0.287731,-0.77882 -0.536033,-1.55595 -0.744658,-2.33112 z M 55.17582,76.93581 c 0.857923,0.08994 1.713801,0.230097 2.567285,0.420646 -0.853484,-0.190549 -1.709362,-0.330709 -2.567285,-0.420646 z m 2.567285,0.420646 c 0.853484,0.190549 1.704811,0.431781 2.553849,0.722953 -0.849038,-0.291172 -1.700365,-0.532404 -2.553849,-0.722953 z m 2.553849,0.722953 c 0.849038,0.291173 1.695829,0.632419 2.540413,1.024227 -0.844584,-0.391808 -1.691375,-0.733054 -2.540413,-1.024227 z m 2.540413,1.024227 c 0.752715,0.343991 1.476345,0.715288 2.170927,1.113627 -0.694582,-0.398339 -1.418212,-0.769636 -2.170927,-1.113627 z m 2.170927,1.113627 c 0.694583,0.39834 1.360324,0.823718 1.996778,1.276408 -0.636454,-0.45269 -1.302195,-0.878068 -1.996778,-1.276408 z m 1.996778,1.276408 c 0.636454,0.452691 1.243784,0.932663 1.822111,1.439706 -0.578327,-0.507043 -1.185657,-0.987015 -1.822111,-1.439706 z m 1.822111,1.439706 c 0.578327,0.507042 1.127241,1.04109 1.647444,1.602486 -0.520203,-0.561396 -1.069117,-1.095444 -1.647444,-1.602486 z m 1.647444,1.602486 c 0.520203,0.561396 1.011731,1.150033 1.473812,1.765784 -0.462081,-0.615751 -0.953609,-1.204388 -1.473812,-1.765784 z m 1.473812,1.765784 c 0.462081,0.615751 0.894667,1.258457 1.298629,1.928564 -0.403962,-0.670107 -0.836548,-1.312813 -1.298629,-1.928564 z m 1.298629,1.928564 c 0.403962,0.670107 0.779151,1.367397 1.124996,2.091862 -0.345845,-0.724465 -0.721034,-1.421755 -1.124996,-2.091862 z m 1.124996,2.091862 c 0.345845,0.724465 0.662599,1.476335 0.95033,2.25516 -0.287731,-0.778825 -0.604485,-1.530695 -0.95033,-2.25516 z m 6.497278,17.268717 c 0.28773,0.77882 0.535765,1.55592 0.74414,2.33164 -0.208375,-0.77572 -0.45641,-1.55282 -0.74414,-2.33164 z m 0.74414,2.33164 c 0.208376,0.77571 0.376893,1.55025 0.505913,2.32285 -0.12902,-0.7726 -0.297537,-1.54714 -0.505913,-2.32285 z m 0.505913,2.32285 c 0.12902,0.7726 0.218536,1.54355 0.2682,2.31304 -0.04966,-0.76949 -0.13918,-1.54044 -0.2682,-2.31304 z m 0.2682,2.31304 c 0.04966,0.76949 0.05966,1.53737 0.02997,2.30374 0.02969,-0.76637 0.01969,-1.53425 -0.02997,-2.30374 z m 0.02997,2.30374 c -0.02969,0.76636 -0.09921,1.53118 -0.208256,2.29443 0.109048,-0.76325 0.178564,-1.52807 0.208256,-2.29443 z m -0.208256,2.29443 c -0.109048,0.76325 -0.257564,1.52501 -0.445968,2.28513 0.188404,-0.76012 0.33692,-1.52188 0.445968,-2.28513 z m -0.445968,2.28513 c -0.188404,0.76013 -0.416435,1.51832 -0.684196,2.27531 0.267761,-0.75699 0.495792,-1.51518 0.684196,-2.27531 z m -0.684196,2.27531 c -0.267761,0.757 -0.575306,1.51266 -0.922424,2.26653 0.347118,-0.75387 0.654663,-1.50953 0.922424,-2.26653 z m -0.922424,2.26653 c -0.345146,0.74959 -0.71736,1.47029 -1.116728,2.16214 0.399368,-0.69185 0.771582,-1.41255 1.116728,-2.16214 z m -1.116728,2.16214 c -0.399367,0.69186 -0.825923,1.35491 -1.279508,1.98903 0.453585,-0.63412 0.880141,-1.29717 1.279508,-1.98903 z m -1.279508,1.98903 c -0.453586,0.63412 -0.934489,1.23952 -1.44229,1.81591 0.507801,-0.57639 0.988704,-1.18179 1.44229,-1.81591 z m -1.44229,1.81591 c -0.5078,0.57639 -1.042541,1.12362 -1.604553,1.64228 0.562012,-0.51866 1.096753,-1.06589 1.604553,-1.64228 z m -1.604553,1.64228 c -0.562011,0.51866 -1.151114,1.00875 -1.767334,1.46967 0.61622,-0.46092 1.205323,-0.95101 1.767334,-1.46967 z m -1.767334,1.46967 c -0.616219,0.46093 -1.25969,0.89285 -1.930115,1.29605 0.670425,-0.4032 1.313896,-0.83512 1.930115,-1.29605 z m -1.930115,1.29605 c -0.670424,0.40319 -1.367752,0.77747 -2.092378,1.12293 0.724626,-0.34546 1.421954,-0.71974 2.092378,-1.12293 z m -2.092378,1.12293 c -0.724626,0.34546 -1.476336,0.66208 -2.25516,0.94981 0.778824,-0.28773 1.530534,-0.60435 2.25516,-0.94981 z m -2.25516,0.94981 c -0.778824,0.28773 -1.556087,0.5359 -2.33164,0.74466 0.775553,-0.20876 1.552816,-0.45693 2.33164,-0.74466 z m -2.33164,0.74466 c -0.775554,0.20876 -1.549538,0.37819 -2.321823,0.50798 0.772285,-0.12979 1.546269,-0.29922 2.321823,-0.50798 z m -2.321823,0.50798 c -0.772284,0.12978 -1.542985,0.21996 -2.312003,0.27078 0.769018,-0.0508 1.539719,-0.141 2.312003,-0.27078 z m -2.312003,0.27078 c -0.769018,0.0508 -1.536432,0.0623 -2.302185,0.0341 0.765753,0.0282 1.533167,0.0167 2.302185,-0.0341 z m -2.302185,0.0341 c -0.765754,-0.0282 -1.529876,-0.096 -2.292367,-0.20309 0.762491,0.10711 1.526613,0.17494 2.292367,0.20309 z m -2.292367,-0.20309 c -0.76249,-0.10711 -1.523318,-0.25369 -2.282548,-0.43977 0.75923,0.18608 1.520058,0.33266 2.282548,0.43977 z m -2.282548,-0.43977 c -0.75923,-0.18607 -1.516758,-0.41141 -2.272729,-0.67644 0.755971,0.26503 1.513499,0.49037 2.272729,0.67644 z M 50.55336,138.6695 c -0.755971,-0.26503 -1.510197,-0.56965 -2.262911,-0.91364 0.752714,0.34399 1.50694,0.64861 2.262911,0.91364 z m -2.262911,-0.91364 c -0.750742,-0.34827 -1.472374,-0.72342 -2.165243,-1.12551 0.692869,0.40209 1.414501,0.77724 2.165243,1.12551 z m -2.165243,-1.12551 c -0.692868,-0.4021 -1.357132,-0.83135 -1.992126,-1.28726 0.634994,0.45591 1.299258,0.88516 1.992126,1.28726 z m -1.992126,-1.28726 c -0.634994,-0.45592 -1.240858,-0.93876 -1.817977,-1.44849 0.577119,0.50973 1.182983,0.99257 1.817977,1.44849 z m -1.817977,-1.44849 c -0.577119,-0.50974 -1.125102,-1.04617 -1.644344,-1.60972 0.519242,0.56355 1.067225,1.09998 1.644344,1.60972 z m -1.644344,-1.60972 c -0.519243,-0.56356 -1.009862,-1.1541 -1.471228,-1.77147 0.461366,0.61737 0.951985,1.20791 1.471228,1.77147 z m -1.471228,-1.77147 c -0.461366,-0.61738 -0.893591,-1.26151 -1.297079,-1.9327 0.403488,0.67119 0.835713,1.31532 1.297079,1.9327 z m -1.297079,-1.9327 c -0.403488,-0.67119 -0.778352,-1.36944 -1.123962,-2.09445 0.34561,0.72501 0.720474,1.42326 1.123962,2.09445 z m -1.123962,-2.09445 c -0.34561,-0.725 -0.662083,-1.47685 -0.949813,-2.25567 0.28773,0.77882 0.604203,1.53067 0.949813,2.25567 z"
       style="line-height:0.75;font-family:'Fluid Lighter';-inkscape-font-specification:'Fluid Lighter';text-align:center;letter-spacing:-1.53988px;word-spacing:-0.383646px;baseline-shift:baseline;text-anchor:middle;display:inline;overflow:visible;vector-effect:none;enable-background:accumulate;stop-color:#000000;stop-opacity:1"
       id="path56" />
    <path
       d="m 104.16973,58.34263 c 0.39068,0.01311 0.77421,0.05521 1.15032,0.126607 -0.37611,-0.0714 -0.75964,-0.113496 -1.15032,-0.126607 z m 0,0 c -0.52091,-0.01748 -1.0552,0.01666 -1.60197,0.102836 0.54677,-0.08617 1.08106,-0.120319 1.60197,-0.102836 z m -1.60197,0.102836 c -0.54677,0.08617 -1.06616,0.21767 -1.55805,0.394808 0.49189,-0.177138 1.01128,-0.308635 1.55805,-0.394808 z m -1.55805,0.394808 c -0.49188,0.177137 -0.95616,0.400092 -1.393192,0.668176 0.437032,-0.268084 0.901312,-0.491039 1.393192,-0.668176 z m -1.393192,0.668176 c -0.437036,0.268083 -0.846656,0.581499 -1.228866,0.940511 0.38221,-0.359012 0.79183,-0.672428 1.228866,-0.940511 z m -1.228866,0.940511 c -0.382209,0.359011 -0.737124,0.763441 -1.064534,1.213363 0.32741,-0.449922 0.682325,-0.854352 1.064534,-1.213363 z m -1.064534,1.213363 c -0.321862,0.442296 -0.592477,0.897429 -0.812354,1.365808 0.219877,-0.468379 0.490492,-0.923512 0.812354,-1.365808 z m -0.812354,1.365808 c -0.219876,0.468378 -0.38907,0.949871 -0.506945,1.444356 0.117875,-0.494485 0.287069,-0.975978 0.506945,-1.444356 z m -0.506945,1.444356 c -0.117876,0.494485 -0.184646,1.00229 -0.200505,1.522904 0.01586,-0.520614 0.08263,-1.028419 0.200505,-1.522904 z m -0.200505,1.522904 c -0.01586,0.520615 0.01925,1.054169 0.10542,1.600936 -0.08617,-0.546767 -0.121279,-1.080321 -0.10542,-1.600936 z m 0.10542,1.600936 c 0.08617,0.546768 0.216758,1.066368 0.392224,1.558562 -0.175466,-0.492194 -0.306051,-1.011794 -0.392224,-1.558562 z m 0.392224,1.558562 c 0.175466,0.492193 0.395668,0.957131 0.660425,1.394746 -0.264757,-0.437615 -0.484959,-0.902553 -0.660425,-1.394746 z m 0.660425,1.394746 c 0.264756,0.437616 0.574063,0.847899 0.928109,1.230933 -0.354046,-0.383034 -0.663353,-0.793317 -0.928109,-1.230933 z m 0.928109,1.230933 c 0.354046,0.383034 0.752975,0.73867 1.196309,1.067118 -0.443334,-0.328448 -0.842263,-0.684084 -1.196309,-1.067118 z m 1.196309,1.067118 c 0.448883,0.320825 0.910034,0.590669 1.383379,0.80977 -0.473345,-0.219101 -0.934496,-0.488945 -1.383379,-0.80977 z m 1.383379,0.80977 c 0.47334,0.219101 0.95895,0.387519 1.45676,0.504879 -0.49781,-0.11736 -0.98342,-0.285778 -1.45676,-0.504879 z m 1.45676,0.504879 c 0.49781,0.11736 1.00785,0.183869 1.53014,0.199471 -0.52229,-0.0156 -1.03233,-0.08211 -1.53014,-0.199471 z m 1.53014,0.199471 c 0.52228,0.0156 1.05675,-0.01976 1.60352,-0.105937 -0.54677,0.08617 -1.08124,0.121539 -1.60352,0.105937 z m 1.60352,-0.105937 c 0.54676,-0.08617 1.0654,-0.217015 1.55597,-0.392224 -0.49057,0.175209 -1.00921,0.306051 -1.55597,0.392224 z m 1.55597,-0.392224 c 0.49057,-0.175209 0.95316,-0.394634 1.38752,-0.658874 -0.43436,0.26424 -0.89695,0.483665 -1.38752,0.658874 z m 1.38752,-0.658874 c 0.43435,-0.264241 0.84041,-0.573289 1.21853,-0.926559 -0.37812,0.35327 -0.78418,0.662318 -1.21853,0.926559 z m 1.21853,-0.926559 c 0.37811,-0.35327 0.7282,-0.750913 1.05006,-1.193209 -0.32186,0.442296 -0.67195,0.839939 -1.05006,1.193209 z m 1.05006,-1.193209 c 0.32741,-0.449921 0.60332,-0.911841 0.82734,-1.385962 -0.22402,0.474121 -0.49993,0.936041 -0.82734,1.385962 z m 0.82734,-1.385962 c 0.22402,-0.47412 0.39614,-0.960498 0.51677,-1.458825 -0.12063,0.498327 -0.29275,0.984705 -0.51677,1.458825 z m 0.51677,-1.458825 c 0.12062,-0.498328 0.18948,-1.00863 0.2067,-1.531173 -0.0172,0.522543 -0.0861,1.032845 -0.2067,1.531173 z m 0.2067,-1.531173 c 0.0172,-0.522543 -0.0172,-1.057269 -0.10335,-1.604036 0.0862,0.546767 0.12058,1.081493 0.10335,1.604036 z m -0.10335,-1.604036 c -0.0862,-0.546768 -0.21793,-1.065148 -0.39481,-1.555461 0.17688,0.490313 0.30864,1.008693 0.39481,1.555461 z m -0.39481,-1.555461 c -0.17688,-0.490314 -0.39906,-0.952641 -0.66663,-1.386479 0.26757,0.433838 0.48975,0.896165 0.66663,1.386479 z m -0.66663,-1.386479 c -0.26756,-0.433838 -0.5802,-0.839122 -0.93844,-1.216463 0.35824,0.377341 0.67088,0.782625 0.93844,1.216463 z m -0.93844,-1.216463 c -0.35824,-0.377341 -0.76189,-0.726659 -1.21078,-1.047481 0.44889,0.320822 0.85254,0.67014 1.21078,1.047481 z m -1.21078,-1.047481 c -0.3325,-0.246336 -0.67204,-0.463628 -1.01906,-0.65164 0.34702,0.188012 0.68656,0.405304 1.01906,0.65164 z m -1.01906,-0.65164 c -0.34701,-0.188012 -0.70143,-0.346757 -1.06298,-0.476457 0.36155,0.1297 0.71597,0.288445 1.06298,0.476457 z m -1.06298,-0.476457 c -0.36155,-0.1297 -0.73029,-0.23039 -1.10639,-0.30179 0.3761,0.0714 0.74484,0.17209 1.10639,0.30179 z"
       style="line-height:0.75;font-family:'Fluid Lighter';-inkscape-font-specification:'Fluid Lighter';text-align:center;letter-spacing:-0.836083px;word-spacing:-0.383646px;baseline-shift:baseline;text-anchor:middle;display:inline;overflow:visible;vector-effect:none;enable-background:accumulate;stop-color:#000000;stop-opacity:1"
       id="path54" />
    <path
       d="m 145.16206,73.158263 c -0.76474,0.01527 -1.51709,0.06327 -2.25671,0.14366 0.73962,-0.08039 1.49197,-0.128392 2.25671,-0.14366 z m -2.25671,0.14366 c -0.73962,0.08039 -1.46676,0.192969 -2.18126,0.338481 0.7145,-0.145512 1.44164,-0.258091 2.18126,-0.338481 z m -2.18126,0.338481 c -0.7145,0.145512 -1.41644,0.3237 -2.10582,0.534334 0.68938,-0.210634 1.39132,-0.388822 2.10582,-0.534334 z m -2.10582,0.534334 c -0.68938,0.210635 -1.36611,0.453914 -2.03037,0.729671 0.66426,-0.275757 1.34099,-0.519036 2.03037,-0.729671 z m -2.03037,0.729671 c -0.66425,0.275758 -1.31578,0.584128 -1.95491,0.925009 0.63913,-0.340881 1.29066,-0.649251 1.95491,-0.925009 z m -1.95491,0.925009 c -0.63914,0.34088 -1.26598,0.714341 -1.87999,1.120345 0.61401,-0.406004 1.24085,-0.779465 1.87999,-1.120345 z m -1.87999,1.120345 c -0.61402,0.406004 -1.21514,0.844554 -1.80403,1.315682 0.58889,-0.471128 1.19001,-0.909678 1.80403,-1.315682 z m -1.80403,1.315682 c -0.58889,0.471128 -1.16532,0.974766 -1.72909,1.511018 0.56377,-0.536252 1.1402,-1.03989 1.72909,-1.511018 z m -1.72909,1.511018 c -0.59794,0.568753 -1.1599,1.15403 -1.68569,1.755449 0.52579,-0.601419 1.08775,-1.186696 1.68569,-1.755449 z m -1.68569,1.755449 c -0.52578,0.601419 -1.01552,1.219033 -1.46916,1.853117 0.45364,-0.634084 0.94338,-1.251698 1.46916,-1.853117 z m -1.46916,1.853117 c -0.45364,0.634083 -0.87114,1.284557 -1.25263,1.951302 0.38149,-0.666745 0.79899,-1.317219 1.25263,-1.951302 z m -1.25263,1.951302 c -0.3815,0.666745 -0.72677,1.349566 -1.03612,2.04897 0.30935,-0.699404 0.65462,-1.382225 1.03612,-2.04897 z m -1.03612,2.04897 c -0.30934,0.699405 -0.5829,1.415095 -0.8201,2.147156 0.2372,-0.732061 0.51076,-1.447751 0.8201,-2.147156 z m -0.8201,2.147156 c -0.2372,0.732061 -0.43801,1.480626 -0.60307,2.245341 0.16506,-0.764715 0.36587,-1.51328 0.60307,-2.245341 z m -0.60307,2.245341 c -0.16505,0.764715 -0.29414,1.545643 -0.38705,2.34301 0.0929,-0.797367 0.222,-1.578295 0.38705,-2.34301 z m -0.38705,2.34301 c -0.0929,0.797366 -0.14977,1.611179 -0.17053,2.441194 0.0208,-0.830015 0.0776,-1.643828 0.17053,-2.441194 z m -0.17053,2.441194 c -0.0208,0.830015 -0.005,1.645981 0.0481,2.447396 -0.0529,-0.801415 -0.0688,-1.617381 -0.0481,-2.447396 z m 0.0481,2.447396 c 0.0529,0.801416 0.14264,1.588282 0.26923,2.361092 -0.12659,-0.77281 -0.21632,-1.559676 -0.26923,-2.361092 z m 0.26923,2.361092 c 0.12659,0.77282 0.29014,1.5311 0.49041,2.27532 -0.20027,-0.74422 -0.36382,-1.5025 -0.49041,-2.27532 z m 0.49041,2.27532 c 0.20027,0.74422 0.43764,1.47442 0.71158,2.19004 -0.27394,-0.71562 -0.51131,-1.44582 -0.71158,-2.19004 z m 0.71158,2.19004 c 0.27395,0.71563 0.58462,1.41672 0.93225,2.10375 -0.34763,-0.68703 -0.6583,-1.38812 -0.93225,-2.10375 z m 0.93225,2.10375 c 0.34762,0.68704 0.73211,1.36004 1.15341,2.01848 -0.4213,-0.65844 -0.80579,-1.33144 -1.15341,-2.01848 z m 1.15341,2.01848 c 0.42131,0.65845 0.87961,1.30233 1.3746,1.93219 -0.49499,-0.62986 -0.95329,-1.27374 -1.3746,-1.93219 z m 1.3746,1.93219 c 0.49498,0.62985 1.02658,1.24564 1.59525,1.84691 -0.56867,-0.60127 -1.10027,-1.21706 -1.59525,-1.84691 z m 1.59525,1.84691 c 0.57208,0.59802 1.16042,1.15982 1.76475,1.68569 -0.60433,-0.52587 -1.19267,-1.08767 -1.76475,-1.68569 z m 1.76475,1.68569 c 0.60433,0.52586 1.22481,1.01597 1.86138,1.46967 -0.63657,-0.4537 -1.25705,-0.94381 -1.86138,-1.46967 z m 1.86138,1.46967 c 0.63658,0.45371 1.28921,0.87109 1.95802,1.25264 -0.66881,-0.38155 -1.32144,-0.79893 -1.95802,-1.25264 z m 1.95802,1.25264 c 0.66882,0.38155 1.3536,0.72724 2.05466,1.03663 -0.70106,-0.30939 -1.38584,-0.65508 -2.05466,-1.03663 z m 2.05466,1.03663 c 0.70106,0.30939 1.41851,0.58235 2.15181,0.81959 -0.7333,-0.23724 -1.45075,-0.5102 -2.15181,-0.81959 z m 2.15181,0.81959 c 0.73329,0.23723 1.48238,0.4385 2.24792,0.60358 -0.76554,-0.16508 -1.51463,-0.36635 -2.24792,-0.60358 z m 2.24792,0.60358 c 0.76554,0.16508 1.5473,0.29414 2.34508,0.38706 -0.79778,-0.0929 -1.57954,-0.22198 -2.34508,-0.38706 z m 2.34508,0.38706 c 0.79777,0.0929 1.61169,0.14977 2.44171,0.17053 -0.83002,-0.0208 -1.64394,-0.0776 -2.44171,-0.17053 z m 2.44171,0.17053 c 1.10668,0.0277 2.18815,-0.0105 3.24476,-0.11421 -1.05661,0.10367 -2.13808,0.14189 -3.24476,0.11421 z m 3.24476,-0.11421 c 1.05661,-0.10366 2.08837,-0.27297 3.0949,-0.50798 -1.00653,0.23501 -2.03829,0.40432 -3.0949,0.50798 z m 3.0949,-0.50798 c 1.00653,-0.235 1.98808,-0.53541 2.94453,-0.90175 -0.95645,0.36634 -1.938,0.66675 -2.94453,0.90175 z m 2.94453,-0.90175 c 0.95644,-0.36634 1.88778,-0.79838 2.79414,-1.29605 -0.90636,0.49767 -1.8377,0.92971 -2.79414,1.29605 z m -8.08375,-46.47675 c 1.20669,0.03018 2.37873,0.135953 3.51658,0.31781 -1.13785,-0.181857 -2.30989,-0.287627 -3.51658,-0.31781 z m 3.51658,0.31781 c 1.13785,0.181857 2.24138,0.440041 3.3104,0.773596 -1.06902,-0.333555 -2.17255,-0.591739 -3.3104,-0.773596 z m 3.3104,0.773596 c 1.06901,0.333556 2.10351,0.742555 3.10368,1.227832 -1.00017,-0.485277 -2.03467,-0.894276 -3.10368,-1.227832 z m 3.10368,1.227832 c 1.00018,0.485278 1.96616,1.046595 2.8975,1.683619 -0.93134,-0.637024 -1.89732,-1.198341 -2.8975,-1.683619 z"
       style="line-height:0.75;font-family:'Fluid Lighter';-inkscape-font-specification:'Fluid Lighter';text-align:center;letter-spacing:-1.53988px;word-spacing:-0.383646px;baseline-shift:baseline;text-anchor:middle;display:inline;overflow:visible;vector-effect:none;enable-background:accumulate;stop-color:#000000;stop-opacity:1"
       id="path53" />
    <path
       d="m 174.18923,93.366332 c -0.11654,0.822054 -0.19508,1.634377 -0.23513,2.436543 0.04,-0.802166 0.11859,-1.614489 0.23513,-2.436543 z m -0.23513,2.436543 c -0.0401,0.802167 -0.0416,1.594321 -0.005,2.3766 -0.0364,-0.782279 -0.0349,-1.574433 0.005,-2.3766 z m -0.005,2.3766 c 0.0364,0.782278 0.11135,1.554263 0.22428,2.316655 -0.11293,-0.762392 -0.18784,-1.534377 -0.22428,-2.316655 z m 0.22428,2.316655 c 0.11292,0.76239 0.26378,1.51524 0.4532,2.25774 -0.18942,-0.7425 -0.34028,-1.49535 -0.4532,-2.25774 z m 0.4532,2.25774 c 0.18942,0.74251 0.41726,1.47467 0.68316,2.19728 -0.2659,-0.72261 -0.49374,-1.45477 -0.68316,-2.19728 z m 0.68316,2.19728 c 0.26591,0.72262 0.5697,1.43565 0.91209,2.13838 -0.34239,-0.70273 -0.64618,-1.41576 -0.91209,-2.13838 z m 0.91209,2.13838 c 0.3424,0.70272 0.72317,1.39558 1.14205,2.07842 -0.41888,-0.68284 -0.79965,-1.3757 -1.14205,-2.07842 z m 1.14205,2.07842 c 0.41889,0.68284 0.87612,1.35553 1.37149,2.01848 -0.49537,-0.66295 -0.9526,-1.33564 -1.37149,-2.01848 z m 1.37149,2.01848 c 0.49915,0.66013 1.01854,1.28627 1.55805,1.87844 -0.53951,-0.59217 -1.0589,-1.21831 -1.55805,-1.87844 z m 1.55805,1.87844 c 0.5395,0.59217 1.0991,1.15061 1.67896,1.67483 -0.57986,-0.52422 -1.13946,-1.08266 -1.67896,-1.67483 z m 1.67896,1.67483 c 0.57987,0.52423 1.18018,1.01444 1.80041,1.47072 -0.62023,-0.45628 -1.22054,-0.94649 -1.80041,-1.47072 z m 1.80041,1.47072 c 0.62023,0.45627 1.26022,0.87826 1.92081,1.26658 -0.66059,-0.38832 -1.30058,-0.81031 -1.92081,-1.26658 z m 1.92081,1.26658 c 0.6606,0.38833 1.34181,0.74261 2.04277,1.06299 -0.70096,-0.32038 -1.38217,-0.67466 -2.04277,-1.06299 z m 2.04277,1.06299 c 0.70096,0.32038 1.42185,0.60695 2.16318,0.85938 -0.74133,-0.25243 -1.46222,-0.539 -2.16318,-0.85938 z m 2.16318,0.85938 c 0.74132,0.25243 1.50293,0.47077 2.28461,0.65526 -0.78168,-0.18449 -1.54329,-0.40283 -2.28461,-0.65526 z m 2.28461,0.65526 c 0.78169,0.18448 1.58349,0.33511 2.40554,0.45165 -0.82205,-0.11654 -1.62385,-0.26717 -2.40554,-0.45165 z m 2.40554,0.45165 c 1.09607,0.15539 2.17499,0.24284 3.2365,0.262 -1.06151,-0.0192 -2.14043,-0.10661 -3.2365,-0.262 z m 3.2365,0.262 c 1.06151,0.0191 2.10568,-0.0302 3.13262,-0.14728 -1.02694,0.11708 -2.07111,0.16643 -3.13262,0.14728 z m 3.13262,-0.14728 c 1.02695,-0.11709 2.03639,-0.30219 3.02876,-0.55552 -0.99237,0.25333 -2.00181,0.43843 -3.02876,0.55552 z m 3.02876,-0.55552 c 0.99237,-0.25334 1.9676,-0.5747 2.9254,-0.96428 -0.9578,0.38958 -1.93303,0.71094 -2.9254,0.96428 z"
       style="line-height:0.75;font-family:'Fluid Lighter';-inkscape-font-specification:'Fluid Lighter';text-align:center;letter-spacing:-2.921px;word-spacing:-0.383646px;baseline-shift:baseline;text-anchor:middle;display:inline;overflow:visible;vector-effect:none;enable-background:accumulate;stop-color:#000000;stop-opacity:1"
       id="path52" />
    <path
       d="m 249.23374,84.986481 c 0.67187,0.01184 1.34454,0.05401 2.01848,0.126608 -0.67394,-0.0726 -1.34661,-0.114767 -2.01848,-0.126608 z m 0,0 c -0.86383,-0.01522 -1.72604,0.01971 -2.5864,0.104904 0.86036,-0.08519 1.72257,-0.120127 2.5864,-0.104904 z m -2.5864,0.104904 c -0.86037,0.08519 -1.71867,0.220545 -2.57556,0.406176 0.85689,-0.185631 1.71519,-0.320985 2.57556,-0.406176 z m -2.57556,0.406176 c -0.85689,0.185631 -1.71233,0.421355 -2.56573,0.707451 0.8534,-0.286096 1.70884,-0.52182 2.56573,-0.707451 z m -2.56573,0.707451 c -0.8534,0.286095 -1.70498,0.622655 -2.55488,1.00924 0.8499,-0.386585 1.70148,-0.723145 2.55488,-1.00924 z m -2.55488,1.00924 c -0.75118,0.341679 -1.47363,0.710749 -2.16731,1.10691 0.69368,-0.396161 1.41613,-0.765231 2.16731,-1.10691 z m -2.16731,1.10691 c -0.69369,0.39616 -1.35851,0.819566 -1.99471,1.270206 0.6362,-0.45064 1.30102,-0.874046 1.99471,-1.270206 z m -1.99471,1.270206 c -0.63621,0.450641 -1.24391,0.928386 -1.82263,1.433505 0.57872,-0.505119 1.18642,-0.982864 1.82263,-1.433505 z m -1.82263,1.433505 c -0.57872,0.505118 -1.12879,1.037206 -1.65003,1.596801 0.52124,-0.559595 1.07131,-1.091683 1.65003,-1.596801 z m -1.65003,1.596801 c -0.52124,0.559596 -1.01367,1.146546 -1.47743,1.760616 0.46376,-0.61407 0.95619,-1.20102 1.47743,-1.760616 z m -1.47743,1.760616 c -0.46376,0.614071 -0.89855,1.25537 -1.30483,1.923914 0.40628,-0.668544 0.84107,-1.309843 1.30483,-1.923914 z m -1.30483,1.923914 c -0.40628,0.668544 -0.78394,1.364712 -1.13275,2.087728 0.34881,-0.723016 0.72647,-1.419184 1.13275,-2.087728 z m -1.13275,2.087728 c -0.3488,0.723016 -0.66882,1.473022 -0.96014,2.250508 0.29132,-0.777486 0.61134,-1.527492 0.96014,-2.250508 z m -0.96014,2.250508 c -0.29133,0.77749 -0.54317,1.55344 -0.75551,2.32802 0.21234,-0.77458 0.46418,-1.55053 0.75551,-2.32802 z m -0.75551,2.32802 c -0.21235,0.77459 -0.38547,1.54756 -0.51884,2.31924 0.13337,-0.77168 0.30649,-1.54465 0.51884,-2.31924 z m -0.51884,2.31924 c -0.13337,0.77169 -0.22724,1.54219 -0.28163,2.31097 0.0544,-0.76878 0.14826,-1.53928 0.28163,-2.31097 z m -0.28163,2.31097 c -0.0544,0.76879 -0.069,1.5363 -0.0444,2.30219 -0.0246,-0.76589 -0.01,-1.5334 0.0444,-2.30219 z m -0.0444,2.30219 c 0.0246,0.76588 0.0887,1.52989 0.19223,2.29288 -0.10357,-0.76299 -0.16765,-1.527 -0.19223,-2.29288 z m 0.19223,2.29288 c 0.10357,0.76299 0.24637,1.52453 0.42892,2.28462 -0.18255,-0.76009 -0.32535,-1.52163 -0.42892,-2.28462 z m 0.42892,2.28462 c 0.18254,0.76009 0.40458,1.51915 0.66611,2.27634 -0.26153,-0.75719 -0.48357,-1.51625 -0.66611,-2.27634 z m 0.66611,2.27634 c 0.26152,0.75719 0.56279,1.51275 0.9033,2.26705 -0.34051,-0.7543 -0.64178,-1.50986 -0.9033,-2.26705 z m 0.9033,2.26705 c 0.3448,0.75234 0.71681,1.47568 1.11569,2.17041 -0.39888,-0.69473 -0.77089,-1.41807 -1.11569,-2.17041 z m 1.11569,2.17041 c 0.39889,0.69472 0.82448,1.36071 1.27745,1.99781 -0.45297,-0.6371 -0.87856,-1.30309 -1.27745,-1.99781 z m 1.27745,1.99781 c 0.45297,0.6371 0.93316,1.24573 1.44022,1.82521 -0.50706,-0.57948 -0.98725,-1.18811 -1.44022,-1.82521 z m 1.44022,1.82521 c 0.50705,0.57948 1.04134,1.12973 1.60248,1.65158 -0.56114,-0.52185 -1.09543,-1.0721 -1.60248,-1.65158 z m 1.60248,1.65158 c 0.56114,0.52185 1.14901,1.01527 1.76424,1.4795 -0.61523,-0.46423 -1.2031,-0.95765 -1.76424,-1.4795 z m 1.76424,1.4795 c 0.61522,0.46422 1.2577,0.89927 1.92701,1.30586 -0.66931,-0.40659 -1.31179,-0.84164 -1.92701,-1.30586 z m 1.92701,1.30586 c 0.66931,0.40659 1.36536,0.7843 2.08876,1.13326 -0.7234,-0.34896 -1.41945,-0.72667 -2.08876,-1.13326 z m 2.08876,1.13326 c 0.7234,0.34896 1.47406,0.66934 2.25155,0.96067 -0.77749,-0.29133 -1.52815,-0.61171 -2.25155,-0.96067 z m 2.25155,0.96067 c 1.17403,0.43991 2.34446,0.78932 3.51141,1.04851 -1.16695,-0.25919 -2.33738,-0.6086 -3.51141,-1.04851 z m 3.51141,1.04851 c 1.16695,0.2592 2.33036,0.42794 3.49022,0.50643 -1.15986,-0.0785 -2.32327,-0.24723 -3.49022,-0.50643 z m 3.49022,0.50643 c 1.15987,0.0785 2.31624,0.0671 3.46904,-0.0351 -1.1528,0.10219 -2.30917,0.11363 -3.46904,0.0351 z m 3.46904,-0.0351 c 1.15281,-0.10219 2.30211,-0.29489 3.44786,-0.57774 -1.14575,0.28285 -2.29505,0.47555 -3.44786,0.57774 z m 0.28267,-47.956761 c 0.67395,0.0726 1.34916,0.17566 2.0252,0.309025 -0.67604,-0.133365 -1.35125,-0.236425 -2.0252,-0.309025 z m 2.0252,0.309025 c 0.67605,0.133364 1.35324,0.297308 2.0314,0.491443 -0.67816,-0.194135 -1.35535,-0.358079 -2.0314,-0.491443 z m 2.0314,0.491443 c 0.67816,0.194134 1.3573,0.418433 2.03761,0.673343 -0.68031,-0.25491 -1.35945,-0.479209 -2.03761,-0.673343 z m 2.03761,0.673343 c 0.77748,0.291326 1.52763,0.611466 2.2505,0.960665 -0.72287,-0.349199 -1.47302,-0.669339 -2.2505,-0.960665 z m 2.2505,0.960665 c 0.72288,0.3492 1.41844,0.727225 2.0867,1.134298 -0.66826,-0.407073 -1.36382,-0.785098 -2.0867,-1.134298 z m 2.0867,1.134298 c 0.66825,0.407073 1.30924,0.843502 1.92288,1.308447 -0.61364,-0.464945 -1.25463,-0.901374 -1.92288,-1.308447 z m 1.92288,1.308447 c 0.61364,0.464945 1.20005,0.958747 1.75906,1.481564 -0.55901,-0.522817 -1.14542,-1.016619 -1.75906,-1.481564 z m 1.75906,1.481564 c 0.55902,0.522816 1.09086,1.074508 1.59526,1.655196 -0.5044,-0.580688 -1.03624,-1.13238 -1.59526,-1.655196 z m 1.59526,1.655196 c 0.50439,0.580687 0.98115,1.190271 1.43092,1.828829 -0.44977,-0.638558 -0.92653,-1.248142 -1.43092,-1.828829 z m 1.43092,1.828829 c 0.44976,0.638557 0.87248,1.306034 1.26762,2.002461 -0.39514,-0.696427 -0.81786,-1.363904 -1.26762,-2.002461 z m 1.26762,2.002461 c 0.39514,0.696428 0.76278,1.421799 1.10329,2.176095 -0.34051,-0.754296 -0.70815,-1.479667 -1.10329,-2.176095 z m 1.10329,2.176095 c 0.3448,0.752343 0.6499,1.506405 0.91519,2.261875 -0.26529,-0.75547 -0.57039,-1.509532 -0.91519,-2.261875 z m 0.91519,2.261875 c 0.26529,0.75548 0.49067,1.51257 0.67645,2.27118 -0.18578,-0.75861 -0.41116,-1.5157 -0.67645,-2.27118 z m 0.67645,2.27118 c 0.18577,0.75861 0.33195,1.51874 0.43821,2.28048 -0.10626,-0.76174 -0.25244,-1.52187 -0.43821,-2.28048 z m 0.43821,2.28048 c 0.10626,0.76175 0.17273,1.5249 0.19947,2.28979 -0.0267,-0.76489 -0.0932,-1.52804 -0.19947,-2.28979 z m 0.19947,2.28979 c 0.0267,0.76488 0.0135,1.53156 -0.0393,2.2996 0.0528,-0.76804 0.066,-1.53472 0.0393,-2.2996 z m -0.0393,2.2996 c -0.0528,0.76803 -0.14522,1.5372 -0.2775,2.30838 0.13228,-0.77118 0.22473,-1.54035 0.2775,-2.30838 z m -0.2775,2.30838 c -0.13229,0.77118 -0.30445,1.54439 -0.51625,2.31872 0.2118,-0.77433 0.38396,-1.54754 0.51625,-2.31872 z m -0.51625,2.31872 c -0.21181,0.77434 -0.46315,1.55002 -0.75448,2.32751 0.29133,-0.77749 0.54267,-1.55317 0.75448,-2.32751 z"
       style="line-height:0.75;font-family:'Fluid Lighter';-inkscape-font-specification:'Fluid Lighter';text-align:center;letter-spacing:-2.667px;word-spacing:-0.383646px;baseline-shift:baseline;text-anchor:middle;display:inline;overflow:visible;vector-effect:none;enable-background:accumulate;stop-color:#000000;stop-opacity:1"
       id="path51" />
    <path
       d="m 270.38697,130.62607 c 0.42849,-0.007 0.84847,0.0206 1.25987,0.0822 -0.4114,-0.0616 -0.83138,-0.089 -1.25987,-0.0822 z m 0,0 c -0.39553,0.006 -0.79863,0.0418 -1.20871,0.10646 0.41008,-0.0646 0.81318,-0.10013 1.20871,-0.10646 z m -1.20871,0.10646 c -0.54677,0.0862 -1.06615,0.21767 -1.55804,0.3948 0.49189,-0.17713 1.01127,-0.30863 1.55804,-0.3948 z m -1.55804,0.3948 c -0.49189,0.17714 -0.95616,0.4001 -1.3932,0.66818 0.43704,-0.26808 0.90131,-0.49104 1.3932,-0.66818 z m -1.3932,0.66818 c -0.43704,0.26808 -0.84666,0.5815 -1.22887,0.94051 0.38221,-0.35901 0.79183,-0.67243 1.22887,-0.94051 z m -1.22887,0.94051 c -0.3822,0.35901 -0.73712,0.76344 -1.06453,1.21336 0.32741,-0.44992 0.68233,-0.85435 1.06453,-1.21336 z m -1.06453,1.21336 c -0.32187,0.4423 -0.59299,0.89743 -0.81287,1.36581 0.21988,-0.46838 0.491,-0.92351 0.81287,-1.36581 z m -0.81287,1.36581 c -0.21988,0.46838 -0.38856,0.94987 -0.50643,1.44436 0.11787,-0.49449 0.28655,-0.97598 0.50643,-1.44436 z m -0.50643,1.44436 c -0.11787,0.49448 -0.18465,1.00229 -0.2005,1.5229 0.0159,-0.52061 0.0826,-1.02842 0.2005,-1.5229 z m -0.2005,1.5229 c -0.0159,0.52062 0.0192,1.05417 0.10542,1.60094 -0.0862,-0.54677 -0.12128,-1.08032 -0.10542,-1.60094 z m 0.10542,1.60094 c 0.0862,0.54677 0.21676,1.06637 0.39222,1.55856 -0.17546,-0.49219 -0.30605,-1.01179 -0.39222,-1.55856 z m 0.39222,1.55856 c 0.17547,0.49219 0.39567,0.95713 0.66043,1.39475 -0.26476,-0.43762 -0.48496,-0.90256 -0.66043,-1.39475 z m 0.66043,1.39475 c 0.26475,0.43761 0.57406,0.8479 0.9281,1.23093 -0.35404,-0.38303 -0.66335,-0.79332 -0.9281,-1.23093 z m 0.9281,1.23093 c 0.35405,0.38303 0.75298,0.73867 1.19631,1.06712 -0.44333,-0.32845 -0.84226,-0.68409 -1.19631,-1.06712 z m 1.19631,1.06712 c 0.44889,0.32084 0.91004,0.59066 1.38338,0.80977 -0.47334,-0.21911 -0.93449,-0.48893 -1.38338,-0.80977 z m 1.38338,0.80977 c 0.47335,0.2191 0.95895,0.38752 1.45676,0.50488 -0.49781,-0.11736 -0.98341,-0.28578 -1.45676,-0.50488 z m 1.45676,0.50488 c 0.49781,0.11735 1.00785,0.18387 1.53014,0.19947 -0.52229,-0.0156 -1.03233,-0.0821 -1.53014,-0.19947 z m 1.53014,0.19947 c 0.52229,0.0156 1.05675,-0.0198 1.60352,-0.10594 -0.54677,0.0862 -1.08123,0.12153 -1.60352,0.10594 z m 1.60352,-0.10594 c 0.54677,-0.0862 1.06541,-0.21701 1.55598,-0.39222 -0.49057,0.17521 -1.00921,0.30605 -1.55598,0.39222 z m 1.55598,-0.39222 c 0.49057,-0.17521 0.95315,-0.39464 1.38751,-0.65888 -0.43436,0.26424 -0.89694,0.48367 -1.38751,0.65888 z m 1.38751,-0.65888 c 0.43435,-0.26424 0.84041,-0.57329 1.21853,-0.92656 -0.37812,0.35327 -0.78418,0.66232 -1.21853,0.92656 z m 1.21853,-0.92656 c 0.37812,-0.35327 0.7282,-0.75091 1.05006,-1.1932 -0.32186,0.44229 -0.67194,0.83993 -1.05006,1.1932 z m 1.05006,-1.1932 c 0.32742,-0.44993 0.60332,-0.9118 0.82734,-1.38597 -0.22402,0.47417 -0.49992,0.93604 -0.82734,1.38597 z m 0.82734,-1.38597 c 0.22402,-0.47417 0.39615,-0.96043 0.51677,-1.45882 -0.12062,0.49839 -0.29275,0.98465 -0.51677,1.45882 z m 0.51677,-1.45882 c 0.12062,-0.49839 0.18948,-1.0091 0.2067,-1.53169 -0.0172,0.52259 -0.0861,1.0333 -0.2067,1.53169 z m 0.2067,-1.53169 c 0.0172,-0.52259 -0.0172,-1.05727 -0.10335,-1.60404 0.0862,0.54677 0.12058,1.08145 0.10335,1.60404 z m -0.10335,-1.60404 c -0.0862,-0.54677 -0.21793,-1.06519 -0.39481,-1.55546 0.17688,0.49027 0.30864,1.00869 0.39481,1.55546 z m -0.39481,-1.55546 c -0.17688,-0.49026 -0.39905,-0.95219 -0.66662,-1.38596 0.26757,0.43377 0.48974,0.8957 0.66662,1.38596 z m -0.66662,-1.38596 c -0.26757,-0.43377 -0.58021,-0.83969 -0.93845,-1.21698 0.35824,0.37729 0.67088,0.78321 0.93845,1.21698 z m -0.93845,-1.21698 c -0.35823,-0.37729 -0.76189,-0.72614 -1.21078,-1.04697 0.44889,0.32083 0.85255,0.66968 1.21078,1.04697 z m -1.21078,-1.04697 c -0.36021,-0.26686 -0.72913,-0.49971 -1.10639,-0.69814 0.37726,0.19843 0.74618,0.43128 1.10639,0.69814 z m -1.10639,-0.69814 c -0.37726,-0.19844 -0.76271,-0.36247 -1.15703,-0.49248 0.39432,0.13001 0.77977,0.29404 1.15703,0.49248 z m -1.15703,-0.49248 c -0.39433,-0.13001 -0.79731,-0.22574 -1.20872,-0.28732 0.41141,0.0616 0.81439,0.15731 1.20872,0.28732 z"
       style="font-size:50.8px;line-height:0.75;font-family:'Fluid Lighter';-inkscape-font-specification:'Fluid Lighter';text-align:center;letter-spacing:-0.836083px;word-spacing:-0.383646px;baseline-shift:baseline;text-anchor:middle;display:inline;overflow:visible;vector-effect:none;stroke-linecap:round;stroke-linejoin:round;enable-background:accumulate;stop-color:#000000;stop-opacity:1"
       id="path49" />
    <path
       d="m 52.595615,76.816954 c -2.682883,0.03317 -5.387315,0.553055 -8.1132,1.560112 -6.230592,2.301843 -10.734372,6.468536 -13.51132,12.499495 -2.761169,5.996692 -2.99069,12.110409 -0.688846,18.340999 l 5.546431,15.01304 c 2.301843,6.23059 6.455836,10.73908 12.461772,13.52527 6.021714,2.75193 12.147613,2.97726 18.378206,0.67541 6.230593,-2.30184 10.726897,-6.45113 13.488066,-12.44782 2.776947,-6.03096 3.014461,-12.16208 0.712618,-18.39267 l -11.260295,4.15995 c 1.146299,3.10278 1.025188,6.16225 -0.363285,9.17773 -1.388474,3.01548 -3.634272,5.09622 -6.737057,6.24252 -3.102784,1.1463 -6.161737,1.02519 -9.177217,-0.36329 -3.015479,-1.38847 -5.096213,-3.63427 -6.242513,-6.73706 l -5.546949,-15.01303 c -1.1463,-3.10279 -1.025188,-6.162257 0.363286,-9.177737 1.388473,-3.01548 3.634271,-5.096214 6.737056,-6.242513 3.102786,-1.1463 6.161739,-1.025189 9.177218,0.363286 3.01548,1.388473 5.096731,3.633753 6.24303,6.736539 l 1.386478,3.753775 9.8733,-7.913727 C 73.02055,86.34664 68.859082,81.855561 62.837367,79.103636 59.459028,77.536403 56.045037,76.774301 52.595615,76.816954 Z"
       style="line-height:0.75;font-family:'Fluid Lighter';-inkscape-font-specification:'Fluid Lighter';text-align:center;letter-spacing:-1.53988px;word-spacing:-0.383646px;baseline-shift:baseline;text-anchor:middle;display:inline;overflow:visible;vector-effect:none;enable-background:accumulate;stop-color:#000000;stop-opacity:1"
       id="path45" />
    <path
       d="m 87.827573,63.857538 -10.814327,6.570142 13.344406,58.51788 11.703678,-2.66909 z"
       style="line-height:0.75;font-family:'Fluid Lighter';-inkscape-font-specification:'Fluid Lighter';text-align:center;letter-spacing:0.687917px;word-spacing:-0.383646px;baseline-shift:baseline;text-anchor:middle;display:inline;overflow:visible;vector-effect:none;enable-background:accumulate;stop-color:#000000;stop-opacity:1"
       id="path44" />
    <path
       d="m 104.16973,58.34263 c -0.52091,-0.01748 -1.0552,0.01666 -1.60197,0.102836 -2.18707,0.344694 -3.935002,1.417172 -5.244642,3.216858 -1.287447,1.769184 -1.759076,3.746935 -1.414384,5.934004 0.344694,2.18707 1.40373,3.937565 3.177067,5.251359 1.795529,1.283298 3.786729,1.752876 5.973799,1.408183 2.18707,-0.344692 3.92464,-1.401681 5.21208,-3.170866 1.30965,-1.799685 1.79215,-3.792927 1.44746,-5.979996 -0.34469,-2.18707 -1.41512,-3.922594 -3.21066,-5.205884 -1.33,-0.985345 -2.77602,-1.504048 -4.33875,-1.556494 z m -2.60191,4.878772 c 1.46525,-6e-6 2.65307,1.187816 2.65307,2.653068 0,1.465251 -1.18782,2.653074 -2.65307,2.653068 -1.46525,6e-6 -2.653074,-1.187817 -2.653068,-2.653068 -6e-6,-1.465252 1.187818,-2.653074 2.653068,-2.653068 z m 4.85087,2.68304 c 0.98599,1.6e-4 1.78526,0.799427 1.78542,1.785421 1.2e-4,0.986196 -0.79923,1.785777 -1.78542,1.785937 -0.9864,1.25e-4 -1.78607,-0.79954 -1.78594,-1.785937 1.6e-4,-0.986196 0.79974,-1.785546 1.78594,-1.785421 z m -8.473388,2.673739 10.867558,2.347143 c 0,0 -7.29614,6.122235 -10.867558,-2.347143 z m 13.354738,6.719486 -11.23445,5.82135 6.85229,43.477963 11.85768,-1.86913 z"
       style="line-height:0.75;font-family:'Fluid Lighter';-inkscape-font-specification:'Fluid Lighter';text-align:center;letter-spacing:-0.836083px;word-spacing:-0.383646px;baseline-shift:baseline;text-anchor:middle;display:inline;overflow:visible;vector-effect:none;enable-background:accumulate;stop-color:#000000;stop-opacity:1"
       id="path43" />
    <path
       d="m 145.16206,73.158263 c -6.11792,0.122149 -11.43204,2.328181 -15.94218,6.6182 -4.78348,4.55002 -7.25826,10.14542 -7.42435,16.785539 -0.16609,6.640118 2.02543,12.365028 6.57479,17.175178 4.57668,4.78415 10.1852,7.2593 16.82533,7.42539 4.42674,0.11072 8.4529,-0.82933 12.07833,-2.81999 l -0.37827,15.12053 11.90005,4.3 1.60093,-64.001267 -11.17244,3.402894 c -3.72537,-2.548096 -8.0014,-3.882125 -12.82816,-4.002857 -0.41501,-0.01038 -0.82617,-0.01176 -1.23403,-0.0036 z m 0.93379,12.003401 c 3.30673,0.08271 6.10424,1.327182 8.39225,3.732589 2.28801,2.405408 3.39051,5.261226 3.30781,8.567953 -0.0827,3.306724 -1.32666,6.104244 -3.73207,8.392254 -2.4054,2.28801 -5.26123,3.39052 -8.56795,3.30781 -3.30673,-0.0827 -6.10424,-1.32667 -8.39225,-3.73208 -2.288,-2.4054 -3.39051,-5.26174 -3.30781,-8.568464 0.0827,-3.306727 1.32666,-6.103726 3.73207,-8.391736 2.4054,-2.288009 5.26122,-3.391036 8.56795,-3.308326 z"
       style="line-height:0.75;font-family:'Fluid Lighter';-inkscape-font-specification:'Fluid Lighter';text-align:center;letter-spacing:-1.53988px;word-spacing:-0.383646px;baseline-shift:baseline;text-anchor:middle;display:inline;overflow:visible;vector-effect:none;enable-background:accumulate;stop-color:#000000;stop-opacity:1"
       id="path42" />
    <path
       d="m 189.44411,71.280858 -12.44679,2.276864 -2.80809,19.80861 c -0.93234,6.576437 0.58297,12.516438 4.54597,17.820098 3.99315,5.281 9.2779,8.38751 15.85433,9.31985 4.38429,0.62155 8.49209,0.15327 12.32328,-1.40508 l -0.43821,3.09025 11.88506,1.68465 6.73964,-47.540253 -12.44679,2.276863 -2.80809,19.80861 c -0.4643,3.27501 -2.02302,5.90972 -4.67672,7.90443 -2.6537,1.9947 -5.6185,2.75976 -8.89352,2.29546 -3.27501,-0.46429 -5.90971,-2.02301 -7.90442,-4.67671 -1.9947,-2.6537 -2.75977,-5.618504 -2.29547,-8.893517 z"
       style="line-height:0.75;font-family:'Fluid Lighter';-inkscape-font-specification:'Fluid Lighter';text-align:center;letter-spacing:-2.921px;word-spacing:-0.383646px;baseline-shift:baseline;text-anchor:middle;display:inline;overflow:visible;vector-effect:none;enable-background:accumulate;stop-color:#000000;stop-opacity:1"
       id="path41" />
    <path
       d="m 249.23374,84.986481 c -3.45533,-0.06089 -6.88298,0.68143 -10.28257,2.227771 -6.00939,2.733432 -10.17924,7.210297 -12.50983,13.430188 -2.33061,6.21989 -2.13393,12.34694 0.59014,18.38131 2.75841,6.01874 7.24751,10.19369 13.4674,12.5243 4.69614,1.75965 9.33553,2.07347 13.91853,0.94206 l -2.74712,-11.71195 c -2.2915,0.56571 -4.61121,0.40854 -6.95927,-0.47129 -3.09746,-1.16062 -5.33359,-3.25165 -6.70812,-6.27352 -1.37451,-3.02186 -1.48152,-6.08131 -0.32091,-9.17876 1.05767,-2.82269 2.88664,-4.929489 5.48701,-6.319515 0.24974,-0.134316 0.51181,-0.26365 0.78651,-0.388606 3.02187,-1.374526 6.08184,-1.481535 9.17929,-0.320911 3.09746,1.160624 5.33359,3.251652 6.70811,6.273522 0.45297,0.99584 0.76186,1.99507 0.9276,2.99723 l -13.48859,-5.05447 -7.9592,9.83661 29.97543,11.23187 2.10633,-5.62033 c 2.3306,-6.21989 2.11659,-12.33879 -0.64182,-18.357535 -2.72406,-6.034366 -7.19634,-10.216947 -13.41623,-12.547555 -2.72121,-1.01964 -5.4252,-1.553057 -8.11269,-1.600419 z"
       style="line-height:0.75;font-family:'Fluid Lighter';-inkscape-font-specification:'Fluid Lighter';text-align:center;letter-spacing:-2.667px;word-spacing:-0.383646px;baseline-shift:baseline;text-anchor:middle;display:inline;overflow:visible;vector-effect:none;enable-background:accumulate;stop-color:#000000;stop-opacity:1"
       id="path40" />
    <path
       d="m 293.8026,85.019038 -23.59701,41.818122 10.45414,5.89938 23.59701,-41.818121 z"
       style="line-height:0.75;font-family:'Fluid Lighter';-inkscape-font-specification:'Fluid Lighter';text-align:center;letter-spacing:-1.53988px;word-spacing:-0.383646px;baseline-shift:baseline;text-anchor:middle;display:inline;overflow:visible;vector-effect:none;enable-background:accumulate;stop-color:#000000;stop-opacity:1"
       id="path39" />
    <path
       d="m 270.38697,130.62607 c -0.39553,0.006 -0.79863,0.0418 -1.20871,0.10646 -2.18707,0.34469 -3.935,1.41717 -5.24464,3.21685 -1.28749,1.76919 -1.75908,3.74695 -1.41438,5.93401 0.34469,2.18707 1.40372,3.93756 3.17706,5.25136 1.79553,1.28336 3.78673,1.75287 5.9738,1.40818 2.18707,-0.34469 3.92464,-1.40168 5.21208,-3.17086 1.30967,-1.7997 1.79215,-3.79346 1.44746,-5.98052 -0.34469,-2.18707 -1.41513,-3.92208 -3.21066,-5.20537 -1.44084,-1.06745 -3.01804,-1.58751 -4.73201,-1.56011 z"
       style="font-size:50.8px;line-height:0.75;font-family:'Fluid Lighter';-inkscape-font-specification:'Fluid Lighter';text-align:center;letter-spacing:-0.836083px;word-spacing:-0.383646px;baseline-shift:baseline;text-anchor:middle;display:inline;overflow:visible;vector-effect:none;stroke-linecap:round;stroke-linejoin:round;enable-background:accumulate;stop-color:#000000;stop-opacity:1"
       id="path38" />
    <path
       d="m 101.56782,63.221402 c -1.46525,-6e-6 -2.653074,1.187816 -2.653068,2.653068 -6e-6,1.465251 1.187818,2.653074 2.653068,2.653068 1.46525,6e-6 2.65307,-1.187817 2.65307,-2.653068 0,-1.465252 -1.18782,-2.653074 -2.65307,-2.653068 z"
       style="baseline-shift:baseline;display:inline;overflow:visible;vector-effect:none;fill:#ffffff;stroke-linecap:round;stroke-linejoin:round;enable-background:accumulate;stop-color:#000000;stop-opacity:1"
       id="path37" />
    <path
       d="m 106.41869,65.904442 c -0.9862,-1.25e-4 -1.78578,0.799225 -1.78594,1.785421 -1.3e-4,0.986397 0.79954,1.786062 1.78594,1.785937 0.98619,-1.6e-4 1.78554,-0.799741 1.78542,-1.785937 -1.6e-4,-0.985994 -0.79943,-1.785261 -1.78542,-1.785421 z"
       style="baseline-shift:baseline;display:inline;overflow:visible;vector-effect:none;fill:#ffffff;stroke-linecap:round;stroke-linejoin:round;enable-background:accumulate;stop-color:#000000;stop-opacity:1"
       id="path36" />
    <path
       d="m 97.945302,68.578181 c 3.571418,8.469378 10.867558,2.347143 10.867558,2.347143 z"
       style="baseline-shift:baseline;display:inline;overflow:visible;vector-effect:none;fill:#ffffff;stroke-linecap:round;stroke-linejoin:round;enable-background:accumulate;stop-color:#000000;stop-opacity:1"
       id="path35" />
  </g>
</svg>
